<svg width="92" height="86" viewBox="0 0 92 86" fill="none" xmlns="http://www.w3.org/2000/svg">
<mask id="mask0_644_556" style="mask-type:luminance" maskUnits="userSpaceOnUse" x="0" y="0" width="92" height="86">
<path d="M91.333 0.666992V85.0928H0.666992V0.666992H91.333Z" fill="white" stroke="white" stroke-width="1.33333"/>
</mask>
<g mask="url(#mask0_644_556)">
<path d="M16.3301 0.666992H75.6162C79.8372 0.666998 83.6605 2.20974 86.4795 4.71387L86.749 4.95898C89.5898 7.60715 91.333 11.2533 91.333 15.2227V70.4873C91.3329 74.381 89.6962 77.924 87.0117 80.5498L86.749 80.8008C83.9066 83.4489 79.9732 85.0928 75.6162 85.0928H16.3301C12.1607 85.0928 8.33875 83.5505 5.52051 81.0459L5.25098 80.8008C2.411 78.152 0.667097 74.5064 0.666992 70.4873V15.2227C0.666992 11.2533 2.41017 7.60715 5.25098 4.95898C8.09256 2.31015 12.0263 0.666992 16.3301 0.666992ZM16.3301 3.80469C12.9792 3.80469 9.96095 5.07565 7.7373 7.14844C5.51316 9.22171 4.12988 12.0564 4.12988 15.2227V70.4873C4.12999 73.6498 5.51069 76.5347 7.7373 78.6104L8.19238 78.123L7.7373 78.6113L7.74414 78.6172C9.95929 80.6276 12.9725 81.9551 16.3301 81.9551H75.6162C78.9707 81.9551 82.0383 80.6298 84.2559 78.6172L84.2627 78.6113L84.2695 78.6045C86.429 76.537 87.87 73.6569 87.8701 70.4873V15.2227C87.8701 12.2478 86.601 9.57472 84.665 7.55078L84.2695 7.1543L84.2627 7.14844L83.8359 6.76953C81.6519 4.9201 78.7549 3.80469 75.6162 3.80469H16.3301Z" fill="#FFE8BD" stroke="#FFE8BD" stroke-width="1.33333"/>
</g>
<path d="M16.8174 30.4102H25.71C26.5832 30.4102 27.3321 30.7096 27.8428 31.1855L27.8623 31.2031C28.4439 31.7037 28.8164 32.383 28.8164 33.1592V71.5938C28.8163 72.3239 28.4389 73.0526 27.8623 73.5488L27.8428 73.5664C27.3321 74.0424 26.5832 74.3427 25.71 74.3428H16.8174C15.9445 74.3428 15.1964 74.0433 14.6836 73.5664L14.665 73.5488L14.6455 73.5342L14.5371 73.4414C14.0093 72.9682 13.711 72.2978 13.7109 71.5938V33.1592C13.7109 32.3625 14.0454 31.6985 14.6455 31.2188L14.665 31.2031L14.6836 31.1865C15.1964 30.7096 15.9444 30.4102 16.8174 30.4102ZM17.1748 71.2051H25.3535V33.5479H17.1748V71.2051Z" fill="#FFE8BD" stroke="#FFE8BD" stroke-width="1.33333"/>
<path d="M39.2861 30.3091H48.1787C48.9232 30.3092 49.6028 30.566 50.1211 30.938L50.333 31.104C50.9579 31.6464 51.2852 32.3221 51.2852 33.0581V34.5601L52.3037 33.9263C54.062 32.8323 56.0527 31.9947 58.0996 31.4937L58.5098 31.3979H58.5117C61.5469 30.7153 64.7336 30.666 67.6475 31.2964V31.2974C70.6103 31.9754 73.3275 33.4207 75.21 35.6479V35.6489L75.2197 35.6587C77.0947 37.7849 78.2324 40.6886 78.2324 44.3618V71.4907C78.2324 72.2299 77.9025 72.912 77.3193 73.4575C76.7824 73.9111 76.024 74.2417 75.1807 74.2417H66.2334C65.4565 74.2417 64.6914 73.9198 64.085 73.4487C63.5085 72.9041 63.1816 72.2251 63.1816 71.4907V50.0396C63.1816 47.8346 61.8823 46.4054 60.2627 45.7202L59.9346 45.5933C59.1419 45.3086 58.2524 45.2026 57.4482 45.2026C56.6705 45.2027 55.8989 45.329 55.1738 45.5425L54.8662 45.6392L54.8633 45.6401C52.9312 46.2949 51.2852 47.7376 51.2852 50.0396V71.5923C51.2852 72.3434 50.9451 73.0567 50.3496 73.5327L50.3301 73.5483L50.3115 73.5659C49.8008 74.0419 49.052 74.3422 48.1787 74.3423H39.2861C38.4128 74.3423 37.6641 74.0419 37.1533 73.5659L37.1436 73.5571L37.1328 73.5483L36.9268 73.3521C36.4681 72.87 36.1797 72.2314 36.1797 71.5923V33.0581L36.1836 32.9233C36.2258 32.2585 36.578 31.6251 37.1406 31.0962C37.6777 30.6408 38.44 30.3091 39.2861 30.3091ZM39.6436 71.2046H47.8203V50.0396C47.8204 46.3381 50.3 43.8265 53.6738 42.6831L53.6729 42.6821C54.8371 42.3052 56.1174 42.1136 57.4121 42.0649C58.5271 42.0665 59.636 42.2123 60.7051 42.5317L61.1631 42.6802L61.165 42.6812C64.3001 43.765 66.6445 46.1639 66.6445 50.0396V71.103H74.7695V44.3618C74.7695 41.6899 74.0208 39.5273 72.7637 37.9126L72.5059 37.5972L72.5039 37.5952L72.2246 37.2866C70.8892 35.8808 69.1407 34.9449 67.2314 34.4243L66.8193 34.3188L66.8096 34.3169L66.3623 34.2251C64.2666 33.8281 62.026 33.8724 59.8623 34.3169L59.3994 34.4185C56.0557 35.197 52.9967 36.8701 50.9951 39.4302L50.9863 39.4409L50.9785 39.4526C50.6853 39.8621 50.1971 40.1294 49.5254 40.1294C48.5559 40.1294 47.8203 39.3791 47.8203 38.5835V33.4468H39.6436V71.2046Z" fill="#FFE8BD" stroke="#FFE8BD" stroke-width="1.33333"/>
<path d="M21.2324 11.3691C23.3428 11.3691 25.2757 12.1475 26.6973 13.3535L26.9746 13.6006H26.9756C28.4127 14.9403 29.2969 16.8275 29.2969 18.8408C29.2969 20.9003 28.4146 22.7414 26.9668 24.1377C25.5319 25.4714 23.4891 26.3125 21.2324 26.3125C19.1641 26.3124 17.2373 25.5723 15.8193 24.376L15.543 24.1309C14.0999 22.7357 13.2227 20.8969 13.2227 18.8408C13.2227 16.9529 13.9992 15.1768 15.2803 13.8584L15.543 13.6006C16.9883 12.2533 19.0359 11.3693 21.2324 11.3691ZM21.2324 14.5566C19.9874 14.5568 18.8541 15.0221 18.0293 15.791C17.2034 16.5609 16.6856 17.6382 16.6855 18.8408C16.6855 19.9592 17.1337 21.0216 17.876 21.791L18.0283 21.9404L18.0293 21.9414C18.8541 22.7102 19.9875 23.1757 21.2324 23.1758C22.4461 23.1758 23.5185 22.769 24.3301 22.082L24.4883 21.9414C25.3236 21.1628 25.833 20.0332 25.833 18.8408C25.833 17.6388 25.3168 16.5606 24.4883 15.79H24.4873C23.6593 15.0187 22.5264 14.5566 21.2324 14.5566Z" fill="#FFE8BD" stroke="#FFE8BD" stroke-width="1.33333"/>
</svg>
