<svg width="430" height="161" viewBox="0 0 430 161" fill="none" xmlns="http://www.w3.org/2000/svg">
<path d="M20.8884 10.2268L52.6765 82.8507L84.3182 10.2268H97.0016L97.4603 10.6905V99.073L97.0016 99.5367H87.0638L87.669 23.8281L55.1164 99.234C54.6195 99.8394 50.7463 99.5367 49.7589 99.3886L49.2875 98.6287C40.4009 76.7971 29.5521 55.7447 20.6654 33.926C19.2767 30.5128 17.9835 27.1318 17.2063 23.5125L17.3592 99.5367H7.26855V10.6905L7.72722 10.2268H20.8693H20.8884Z" fill="#FFE8BD"/>
<path d="M407.239 19.3843C428.955 39.7862 427.707 74.2918 404.219 92.723C374.469 116.068 329.794 95.6919 327.947 57.6701C325.857 14.6767 376.017 -9.95631 407.239 19.3843ZM403.639 82.7282C423.865 61.7209 415.049 25.161 387.185 16.6344C356.671 7.29645 328.966 35.4457 337.515 66.2289C345.542 95.1252 382.987 104.18 403.639 82.7282Z" fill="#FFE8BD"/>
<path d="M212.401 51.636L247.706 10.2268H260.389L223.084 53.027L263.141 99.5367H248.929L212.707 56.1118C211.726 55.9315 212.401 56.6528 212.401 56.7365V99.073L211.942 99.5367H202.157L201.699 99.073V10.6905L202.157 10.2268H211.942L212.401 10.6905V51.636Z" fill="#FFE8BD"/>
<path d="M320.621 11.766V23.8152C311.874 17.4139 290.521 15.0633 283.806 25.071C278.64 32.7733 283.45 40.2952 290.145 44.5778C301.522 51.855 322.908 57.8571 324.303 74.3306C326.775 103.575 289.82 105.307 270.798 96.13V83.7716C272.327 84.4221 273.588 85.5877 275.073 86.4056C284.635 91.68 308.906 96.072 312.894 81.9813C315.569 72.5403 309.485 67.2595 302.185 63.0155C288.686 55.1716 268.224 49.3692 271.142 29.2635C274.264 7.77964 304.567 5.2938 320.627 11.766H320.621Z" fill="#FFE8BD"/>
<path d="M188.862 99.5365H177.702L149.124 21.9732L121.916 99.5365H110.303L143.958 10.7161C144.181 10.2395 144.55 10.2588 144.983 10.2073C146.066 10.0785 154.532 10.0849 154.947 10.3683L188.869 99.5365H188.862Z" fill="#FFE8BD"/>
<path d="M419.967 150.213L419.68 154.405H7.56792L7.28125 150.213H419.967Z" fill="#FFE8BD"/>
<path d="M419.967 104.785H7.28125V108.804H419.967V104.785Z" fill="#FFE8BD"/>
<path d="M262.383 114.368L272.779 139.4L282.711 114.368H288.215V145.892L284.552 145.885L284.545 119.314L273.881 145.705L272.155 145.911L260.854 118.998L261.013 145.892L257.344 145.885L257.337 114.368H262.383Z" fill="#FFE8BD"/>
<path d="M168.382 114.368V118.077H154.016V127.963H166.853V131.672H154.016V145.892H150.041V114.368H168.382Z" fill="#FFE8BD"/>
<path d="M227.078 142.491H242.055V145.892H223.103V114.832C223.969 114.078 226.25 114.091 227.078 114.832V142.491Z" fill="#FFE8BD"/>
<path d="M196.507 114.368H192.837V145.892H196.507V114.368Z" fill="#FFE8BD"/>
<path d="M379.617 17.9482L379.311 22.2759C382.388 22.4434 385.598 23.2806 388.331 24.736L390 21.1618C390.752 20.6144 396.823 24.575 397.651 25.5152L395.218 29.0572C396.11 29.5338 397.556 30.635 398.282 31.3756C398.963 32.0647 400.804 34.7695 401.32 35.1108C402.085 35.6067 403.678 33.8228 404.531 33.3785C404.811 33.2304 404.805 32.9277 405.149 33.3849L409.283 40.9584L405.608 42.3687C406.245 45.4406 407.614 48.4288 407.436 51.6359C407.844 52.0609 411.195 50.9983 411.717 51.7904V58.7456L407.882 58.5138L407.481 58.9388C407.462 61.9077 406.48 64.7155 405.627 67.504C405.888 68.4378 409.328 68.6439 409.233 69.6614C409.169 70.3376 405.277 77.2864 404.837 77.2864L401.779 74.8778L395.211 81.4788L397.524 85.0273C395.288 86.8112 392.81 88.2473 390.179 89.3614L388.299 85.6648C385.471 86.9915 382.445 87.8931 379.317 88.1185C378.992 88.8398 380.133 92.4397 379.158 92.4397H371.514C371.342 92.4397 370.832 91.9889 370.443 92.1242L371.055 88.112C368.074 87.9575 365.315 86.7725 362.499 85.9482L361.238 89.3099C360.2 89.9796 353.657 85.4137 352.543 84.409L354.721 80.9958C352.511 79.418 350.74 77.3444 349.185 75.1354L345.707 77.28L341.394 69.1205L345.07 67.7166C343.955 64.9538 343.344 62.0236 342.93 59.0676C342.783 58.9195 339.509 60.0401 338.955 58.9131V51.0305L342.923 51.3396C343.293 48.3837 343.943 45.4406 345.07 42.6907C344.962 42.549 342.293 41.7634 341.789 41.5186C341.484 41.3705 341.292 41.6217 341.445 41.0421L345.682 33.2432C346.433 32.7667 348.44 35.1302 349.345 35.2718C350.517 32.844 352.816 30.9313 354.855 29.2376L352.549 26.0047C354.97 23.7764 357.932 22.2888 360.824 20.7818L362.952 24.3818C365.462 23.2934 368.328 22.4305 371.061 22.2952C371.443 21.9217 370.055 18.5536 370.908 17.9676H379.623L379.617 17.9482ZM394.899 36.489C395.256 35.9931 392.211 33.5073 391.682 33.1016C366.207 13.4789 334.215 47.9908 354.696 72.9652C370.94 92.7682 402.849 80.4162 402.231 55.0362C389.153 59.7181 382.018 41.6088 394.893 36.489H394.899Z" fill="#FFE8BD"/>
<path d="M376.476 47.0765C383.547 45.8851 387.618 55.1844 381.553 59.3125C375.342 63.5435 368.035 55.9186 372.456 49.807C373.355 48.5641 374.947 47.3341 376.476 47.0765Z" fill="#FFE8BD"/>
<path d="M362.104 56.028C364.595 55.4548 367.073 57.5285 366.398 60.0594C365.525 63.3438 359.709 62.9123 359.709 59.2093C359.709 58.0179 360.926 56.3049 362.104 56.028Z" fill="#FFE8BD"/>
</svg>
